<?xml version="1.0" encoding="UTF-8" standalone="no"?>
<!DOCTYPE svg PUBLIC "-//W3C//DTD SVG 1.1//EN" "http://www.w3.org/Graphics/SVG/1.1/DTD/svg11.dtd">
<svg width="100%" height="100%" viewBox="0 0 364 109" version="1.1" xmlns="http://www.w3.org/2000/svg" xmlns:xlink="http://www.w3.org/1999/xlink" xml:space="preserve" xmlns:serif="http://www.serif.com/" style="fill-rule:evenodd;clip-rule:evenodd;stroke-linejoin:round;stroke-miterlimit:2;">
    <g transform="matrix(1,0,0,1,-37.8238,0)">
        <g id="Artboard1" transform="matrix(0.726452,0,0,0.715409,37.8238,-114.3)">
            <rect x="0" y="159.769" width="500" height="151.886" style="fill:none;"/>
            <g transform="matrix(1.37655,0,0,1.3978,-13.7948,-287.796)">
                <text x="147.205px" y="373.076px" style="font-family:'BebasNeue-Regular', 'Bebas Neue', sans-serif;font-size:54.667px;fill:white;">NO<tspan x="192.305px 211.657px " y="373.076px 373.076px ">VA</tspan> VIS<tspan x="293.876px 315.688px " y="373.076px 373.076px ">ÃO</tspan></text>
            </g>
            <g transform="matrix(1.37655,0,0,1.3978,-11.0105,-217.883)">
                <text x="147.205px" y="373.076px" style="font-family:'Virtual-Regular', 'Virtual';font-size:66.667px;fill:white;">para Novo Tempo</text>
            </g>
            <g transform="matrix(0.0744329,2.009e-33,0,-0.0755818,-92.6933,436.528)">
                <path d="M1405,3045C1367,3038 1333,3032 1330,3031C1327,3030 1349,3019 1378,3005C1478,2958 1586,2866 1850,2600C1996,2453 2137,2316 2164,2296C2269,2217 2414,2162 2565,2145C2621,2138 2623,2137 2605,2123C2570,2096 2467,2053 2407,2039C2343,2025 2344,2013 2409,1991C2493,1964 2577,1981 2700,2050C2795,2104 2895,2140 3015,2165C3059,2174 3096,2183 3098,2185C3110,2197 3046,2213 2990,2211C2954,2211 2912,2213 2895,2216C2866,2223 2866,2223 2919,2246C3003,2283 3096,2355 3215,2475C3340,2601 3447,2730 3493,2810C3510,2840 3563,2905 3610,2954L3695,3042L3580,3038C3434,3032 3373,3010 3290,2933C3216,2865 3158,2773 3082,2603C3049,2530 3011,2451 2997,2427C2957,2360 2884,2284 2837,2261C2691,2190 2460,2298 2307,2508C2273,2554 2212,2638 2171,2694C2027,2890 1894,2998 1755,3033C1669,3055 1490,3061 1405,3045Z" style="fill:rgb(240,179,87);fill-rule:nonzero;"/>
            </g>
        </g>
    </g>
</svg>
